# xmcd
#
# Track frame offsets: 
#        150
#        16882
#        33630
#        50704
#        65878
#        77077
#        92034
#        106770
#        124433
#        142463
#        160822
#
# Disc length: 2331 seconds
#
# Revision: 0
# Processed by: cddbd v1.5.2PL0 Copyright (c) Steve Scherf et al.
# Submitted via: ExactAudioCopyFreeDBPlugin 1.0
#
DISCID=a009190b
DTITLE=Will Hoge - Anchors
DYEAR=2018
DGENRE=Country
TTITLE0=The Reckoning
TTITLE1=This Grand-Charade
TTITLE2=Little Bit Of Rust
TTITLE3=Cold Night In Santa Fe
TTITLE4=Baby's Eyes
TTITLE5=(This Ain't) An Original Sin
TTITLE6=Through Missing You
TTITLE7=Anchors
TTITLE8=Angel's Wings
TTITLE9=17
TTITLE10=Young As We Will Ever Be
EXTD=
EXTT0=
EXTT1=
EXTT2=
EXTT3=
EXTT4=
EXTT5=
EXTT6=
EXTT7=
EXTT8=
EXTT9=
EXTT10=
PLAYORDER=
